G04 Layer: TopSilkLayer*
G04 EasyEDA v6.3.43, 2020-06-01T11:41:27+03:00*
G04 bfb6ac60199344d8a78e771a5d16b29a,e0e0979b075945b6968547163b5211cc,10*
G04 Gerber Generator version 0.2*
G04 Scale: 100 percent, Rotated: No, Reflected: No *
G04 Dimensions in millimeters *
G04 leading zeros omitted , absolute positions ,3 integer and 3 decimal *
%FSLAX33Y33*%
%MOMM*%
G90*
G71D02*

%ADD14C,0.203200*%
%ADD15C,0.202999*%
%ADD16C,0.152400*%

%LPD*%
G54D14*
G01X2286Y14986D02*
G01X381Y14986D01*
G01X381Y12446D01*
G01X13081Y12446D01*
G01X13081Y14986D01*
G54D15*
G01X13081Y14986D02*
G01X2286Y14986D01*
G54D14*
G01X11176Y6858D02*
G01X13081Y6858D01*
G01X13081Y9398D01*
G01X381Y9398D01*
G01X381Y6858D01*
G54D15*
G01X381Y6858D02*
G01X11176Y6858D01*
G54D14*
G01X21844Y9144D02*
G01X21844Y7239D01*
G01X24384Y7239D01*
G01X24384Y14859D01*
G01X21844Y14859D01*
G54D15*
G01X21844Y14859D02*
G01X21844Y9144D01*
G54D16*
G01X6731Y16393D02*
G01X6731Y15303D01*
G01X7457Y16393D02*
G01X7457Y15303D01*
G01X6731Y15875D02*
G01X7457Y15875D01*
G01X7800Y16184D02*
G01X7904Y16238D01*
G01X8061Y16393D01*
G01X8061Y15303D01*
G01X6731Y5450D02*
G01X6731Y6540D01*
G01X6004Y5450D02*
G01X6004Y6540D01*
G01X6731Y5969D02*
G01X6004Y5969D01*
G01X5557Y5450D02*
G01X4986Y5450D01*
G01X5295Y5867D01*
G01X5140Y5867D01*
G01X5036Y5918D01*
G01X4986Y5969D01*
G01X4932Y6126D01*
G01X4932Y6230D01*
G01X4986Y6385D01*
G01X5090Y6489D01*
G01X5245Y6540D01*
G01X5400Y6540D01*
G01X5557Y6489D01*
G01X5608Y6438D01*
G01X5661Y6334D01*
G01X20436Y11569D02*
G01X21267Y11569D01*
G01X21424Y11516D01*
G01X21475Y11465D01*
G01X21526Y11361D01*
G01X21526Y11257D01*
G01X21475Y11153D01*
G01X21424Y11099D01*
G01X21267Y11049D01*
G01X21163Y11049D01*
G01X20645Y11912D02*
G01X20591Y12014D01*
G01X20436Y12171D01*
G01X21526Y12171D01*
M00*
M02*
